<?xml version="1.0" encoding="utf-8"?>
<!-- Generator: Adobe Illustrator 21.1.0, SVG Export Plug-In . SVG Version: 6.00 Build 0)  -->
<svg version="1.1" id="Слой_1" xmlns="http://www.w3.org/2000/svg" xmlns:xlink="http://www.w3.org/1999/xlink" x="0px" y="0px"
	 viewBox="0 0 47 86" style="enable-background:new 0 0 47 86;" xml:space="preserve">
<style type="text/css">
	.st0{fill:#FFFFFF;}
	.st1{fill:#CCCCCC;}
	.st2{fill:#EEEEEE;}
</style>
<g>
	<path class="st0" d="M42.2,2H4.8C3.2,2,2,3.2,2,4.8v32.5C2,38.8,3.2,40,4.8,40c0,0,3.8,0,8.1,0s4.3,4.2,4.3,4.2v36.9
		c0,1.5,1.2,2.8,2.8,2.8h22.2c1.5,0,2.8-1.2,2.8-2.8V38V4.8C45,3.2,43.8,2,42.2,2z"/>
</g>
<path class="st1" d="M42.2,2C43.8,2,45,3.2,45,4.8v33.5v43c0,1.5-1.2,2.8-2.8,2.8H20.1c-1.5,0-2.8-1.2-2.8-2.8V44.3
	c0,0,0-4.2-4.3-4.2c-4.3,0-8.1,0-8.1,0C3.3,40,2,38.8,2,37.3V4.8C2,3.2,3.3,2,4.8,2H42.2 M42.2,0H4.8C2.2,0,0,2.1,0,4.8v32.5
	C0,39.9,2.2,42,4.8,42h8.1c2.2,0,2.3,1.7,2.3,2.2v36.9c0,2.6,2.1,4.8,4.8,4.8h22.2c2.6,0,4.8-2.1,4.8-4.8v-43V4.8
	C47,2.1,44.9,0,42.2,0L42.2,0z"/>
<g>
	<polygon class="st2" points="8.5,2 2,8.5 2,15.6 15.6,2 	"/>
	<polygon class="st2" points="23.5,2 2,23.5 2,30.6 30.6,2 	"/>
	<path class="st2" d="M42.2,2h-3.7L2.2,38.3c0.4,1,1.4,1.7,2.6,1.7c0,0,1.1,0,2.7,0L44.4,3.1C43.9,2.4,43.1,2,42.2,2z"/>
	<path class="st2" d="M15,40.5c2.2,1.1,2.2,3.8,2.2,3.8v1L45,17.6v-7.1L15,40.5z"/>
	<polygon class="st2" points="17.3,60.3 45,32.6 45,25.5 17.3,53.2 	"/>
	<polygon class="st2" points="17.3,75.3 45,47.6 45,40.5 17.3,68.2 	"/>
	<path class="st2" d="M20,84h3.5L45,62.6v-7.1L17.7,82.8C18.2,83.5,19.1,84,20,84z"/>
	<polygon class="st2" points="38.6,84 45,77.6 45,70.5 31.5,84 	"/>
</g>
</svg>
