<?xml version="1.0" encoding="utf-8"?>
<!-- Generator: Adobe Illustrator 21.1.0, SVG Export Plug-In . SVG Version: 6.00 Build 0)  -->
<svg version="1.1" id="Слой_1" xmlns="http://www.w3.org/2000/svg" xmlns:xlink="http://www.w3.org/1999/xlink" x="0px" y="0px"
	 viewBox="0 0 47 86" style="enable-background:new 0 0 47 86;" xml:space="preserve">
<style type="text/css">
	.st0{fill:#FFFFFF;}
	.st1{fill:#E4E4E4;}
</style>
<g>
	<path class="st0" d="M42.2,2H4.8C3.2,2,2,3.2,2,4.8v32.5C2,38.8,3.2,40,4.8,40c0,0,3.8,0,8.1,0s4.3,4.2,4.3,4.2v36.9
		c0,1.5,1.2,2.8,2.8,2.8h22.2c1.5,0,2.8-1.2,2.8-2.8V38V4.8C45,3.2,43.8,2,42.2,2z"/>
</g>
<path class="st1" d="M42.2,2C43.8,2,45,3.2,45,4.8v33.5v43c0,1.5-1.2,2.8-2.8,2.8H20.1c-1.5,0-2.8-1.2-2.8-2.8V44.3
	c0,0,0-4.2-4.3-4.2c-4.3,0-8.1,0-8.1,0C3.3,40,2,38.8,2,37.3V4.8C2,3.2,3.3,2,4.8,2H42.2 M42.2,0H4.8C2.2,0,0,2.1,0,4.8v32.5
	C0,39.9,2.2,42,4.8,42h8.1c2.2,0,2.3,1.7,2.3,2.2v36.9c0,2.6,2.1,4.8,4.8,4.8h22.2c2.6,0,4.8-2.1,4.8-4.8v-43V4.8
	C47,2.1,44.9,0,42.2,0L42.2,0z"/>
</svg>
