<svg width="64" height="96" viewBox="0 0 64 96" fill="none" xmlns="http://www.w3.org/2000/svg">
<circle cx="16" cy="16" r="16" fill="#F1F1F1"/>
<path d="M14.5 12.3301L22 7.99999L14.5 3.66986V7.12586C13.0477 7.37136 11.6695 7.97112 10.4921 8.88218C8.90408 10.111 7.77259 11.8357 7.27767 13.7817C6.78275 15.7277 6.95282 17.7834 7.76083 19.6216C8.56885 21.4598 9.96838 22.975 11.7368 23.9262C13.5052 24.8774 15.5409 25.2098 17.52 24.8707C19.4992 24.5316 21.308 23.5403 22.6589 22.0547C24.0097 20.569 24.825 18.6743 24.9749 16.6719C25.1248 14.6695 24.6008 12.6745 23.4862 11.0043L21.8086 12.1238C22.6734 13.4198 23.08 14.9677 22.9637 16.5213C22.8473 18.075 22.2148 19.5451 21.1667 20.6978C20.1185 21.8506 18.715 22.6197 17.1794 22.8828C15.6438 23.1459 14.0643 22.888 12.6922 22.15C11.32 21.412 10.2341 20.2363 9.6072 18.81C8.98026 17.3837 8.8483 15.7887 9.23231 14.2788C9.61632 12.7689 10.4942 11.4307 11.7264 10.4773C12.5486 9.84103 13.497 9.40046 14.5 9.17985V12.3301Z" fill="#8A8A8A"/>
<circle cx="48" cy="16" r="16" fill="#D5D5D5"/>
<path d="M46.5 12.3301L54 7.99999L46.5 3.66986V7.12586C45.0477 7.37136 43.6695 7.97112 42.4921 8.88218C40.9041 10.111 39.7726 11.8357 39.2777 13.7817C38.7827 15.7277 38.9528 17.7834 39.7608 19.6216C40.5688 21.4598 41.9684 22.975 43.7368 23.9262C45.5052 24.8774 47.5409 25.2098 49.52 24.8707C51.4992 24.5316 53.308 23.5403 54.6589 22.0547C56.0097 20.569 56.825 18.6743 56.9749 16.6719C57.1248 14.6695 56.6008 12.6745 55.4862 11.0043L53.8086 12.1238C54.6734 13.4198 55.08 14.9677 54.9637 16.5213C54.8473 18.075 54.2148 19.5451 53.1667 20.6978C52.1185 21.8506 50.715 22.6197 49.1794 22.8828C47.6438 23.1459 46.0643 22.888 44.6922 22.15C43.32 21.412 42.2341 20.2363 41.6072 18.81C40.9803 17.3837 40.8483 15.7887 41.2323 14.2788C41.6163 12.7689 42.4942 11.4307 43.7264 10.4773C44.5486 9.84102 45.497 9.40046 46.5 9.17985V12.3301Z" fill="#8A8A8A"/>
<circle cx="16" cy="48" r="16" fill="#F1F1F1"/>
<path d="M22 40.3301L14.5 44.6603V41.51C13.497 41.7306 12.5486 42.1712 11.7264 42.8074C10.4942 43.7609 9.61632 45.099 9.23231 46.6089C8.8483 48.1189 8.98026 49.7139 9.6072 51.1401C10.2341 52.5664 11.32 53.7421 12.6922 54.4801C14.0643 55.2181 15.6438 55.4761 17.1794 55.2129C18.715 54.9498 20.1185 54.1807 21.1667 53.028C22.2148 51.8753 22.8473 50.4051 22.9637 48.8515C23.08 47.2978 22.6734 45.7499 21.8086 44.454L23.4862 43.3344C24.6008 45.0047 25.1248 46.9997 24.9749 49.0021C24.825 51.0044 24.0097 52.8992 22.6589 54.3848C21.308 55.8705 19.4992 56.8617 17.52 57.2008C15.5409 57.54 13.5052 57.2075 11.7368 56.2563C9.96838 55.3052 8.56885 53.79 7.76083 51.9517C6.95282 50.1135 6.78275 48.0579 7.27767 46.1118C7.77259 44.1658 8.90408 42.4412 10.4921 41.2123C11.6695 40.3013 13.0477 39.7015 14.5 39.456V36L22 40.3301Z" fill="#8A8A8A"/>
<path fill-rule="evenodd" clip-rule="evenodd" d="M14 48V47C14 45.8954 14.8954 45 16 45C17.1046 45 18 45.8954 18 47V48C18.5523 48 19 48.4477 19 49V51C19 51.5523 18.5523 52 18 52H14C13.4477 52 13 51.5523 13 51V49C13 48.4477 13.4477 48 14 48ZM17 47V48H15V47C15 46.4477 15.4477 46 16 46C16.5523 46 17 46.4477 17 47ZM17 49V51H15V49H17Z" fill="#8A8A8A"/>
<circle cx="48" cy="48" r="16" fill="#D5D5D5"/>
<path d="M54 40.3301L46.5 44.6603V41.51C45.497 41.7306 44.5486 42.1712 43.7264 42.8074C42.4942 43.7609 41.6163 45.099 41.2323 46.6089C40.8483 48.1189 40.9803 49.7139 41.6072 51.1401C42.2341 52.5664 43.32 53.7421 44.6922 54.4801C46.0643 55.2181 47.6438 55.4761 49.1794 55.2129C50.715 54.9498 52.1185 54.1807 53.1667 53.028C54.2148 51.8753 54.8473 50.4051 54.9637 48.8515C55.08 47.2978 54.6734 45.7499 53.8086 44.454L55.4862 43.3344C56.6008 45.0047 57.1248 46.9997 56.9749 49.0021C56.825 51.0044 56.0097 52.8992 54.6589 54.3848C53.308 55.8705 51.4992 56.8617 49.52 57.2008C47.5409 57.54 45.5052 57.2075 43.7368 56.2563C41.9684 55.3052 40.5688 53.79 39.7608 51.9517C38.9528 50.1135 38.7827 48.0579 39.2777 46.1118C39.7726 44.1658 40.9041 42.4412 42.4921 41.2123C43.6695 40.3013 45.0477 39.7015 46.5 39.456V36L54 40.3301Z" fill="#8A8A8A"/>
<path fill-rule="evenodd" clip-rule="evenodd" d="M46 48V47C46 45.8954 46.8954 45 48 45C49.1046 45 50 45.8954 50 47V48C50.5523 48 51 48.4477 51 49V51C51 51.5523 50.5523 52 50 52H46C45.4477 52 45 51.5523 45 51V49C45 48.4477 45.4477 48 46 48ZM49 47V48H47V47C47 46.4477 47.4477 46 48 46C48.5523 46 49 46.4477 49 47ZM49 49V51H47V49H49Z" fill="#8A8A8A"/>
<circle cx="16" cy="80" r="16" fill="#F1F1F1"/>
<path d="M17.4853 80.0711L23.1421 74.4142L21.7279 73L16.0711 78.6568L10.4142 73L9.00002 74.4142L14.6569 80.0711L9 85.7279L10.4142 87.1421L16.0711 81.4853L21.7279 87.1421L23.1422 85.7279L17.4853 80.0711Z" fill="#8A8A8A"/>
<circle cx="48" cy="80" r="16" fill="#D5D5D5"/>
<path d="M49.4853 80.0711L55.1421 74.4142L53.7279 73L48.0711 78.6568L42.4142 73L41 74.4142L46.6569 80.0711L41 85.7279L42.4142 87.1421L48.0711 81.4853L53.7279 87.1421L55.1422 85.7279L49.4853 80.0711Z" fill="#8A8A8A"/>
</svg>
